<?xml version="1.0" encoding="utf-8"?>
<svg rpl="" fill="#FFFFFF" height="16" icon-name="downvote-outline" viewBox="0 0 20 20"
    width="16" xmlns="http://www.w3.org/2000/svg"> <!--?lit$268267865$--><!--?lit$268267865$-->
    <path
        d="M10 1a3.966 3.966 0 013.96 3.962V9.02h3.202c.706 0 1.335.42 1.605 1.073.27.652.122 1.396-.377 1.895l-7.754 7.759a.925.925 0 01-1.272 0l-7.754-7.76a1.734 1.734 0 01-.376-1.894c.27-.652.9-1.073 1.605-1.073h3.202V4.962A3.965 3.965 0 0110 1zm7.01 9.82h-4.85V5.09c0-1.13-.81-2.163-1.934-2.278a2.163 2.163 0 00-2.386 2.15v5.859H2.989l7.01 7.016 7.012-7.016z"></path><!--?-->
</svg>