<?xml version="1.0" encoding="utf-8"?>
<svg rpl="" aria-hidden="true" fill="#FFFFFF" height="16"
    icon-name="share-new-outline" viewBox="0 0 20 20" width="16" xmlns="http://www.w3.org/2000/svg">
    <path
        d="M12.8 17.524l6.89-6.887a.9.9 0 000-1.273L12.8 2.477a1.64 1.64 0 00-1.782-.349 1.64 1.64 0 00-1.014 1.518v2.593C4.054 6.728 1.192 12.075 1 17.376a1.353 1.353 0 00.862 1.32 1.35 1.35 0 001.531-.364l.334-.381c1.705-1.944 3.323-3.791 6.277-4.103v2.509c0 .667.398 1.262 1.014 1.518a1.638 1.638 0 001.783-.349v-.002zm-.994-1.548V12h-.9c-3.969 0-6.162 2.1-8.001 4.161.514-4.011 2.823-8.16 8-8.16h.9V4.024L17.784 10l-5.977 5.976z"></path>
</svg>